<svg width="14" height="14" viewBox="0 0 14 14" fill="none" xmlns="http://www.w3.org/2000/svg">
<path d="M7.75008 3.66675C7.75008 3.25253 7.41429 2.91675 7.00008 2.91675C6.58587 2.91675 6.25008 3.25253 6.25008 3.66675H7.75008ZM6.25008 8.33341C6.25008 8.74763 6.58587 9.08341 7.00008 9.08341C7.41429 9.08341 7.75008 8.74763 7.75008 8.33341H6.25008ZM7.75008 10.3268C7.75008 9.91254 7.41429 9.57675 7.00008 9.57675C6.58587 9.57675 6.25008 9.91254 6.25008 10.3268H7.75008ZM6.25008 10.3334C6.25008 10.7476 6.58587 11.0834 7.00008 11.0834C7.41429 11.0834 7.75008 10.7476 7.75008 10.3334H6.25008ZM6.25008 3.66675V8.33341H7.75008V3.66675H6.25008ZM6.25008 10.3268V10.3334H7.75008V10.3268H6.25008ZM4.33341 2.41675H9.66675V0.916748H4.33341V2.41675ZM11.5834 4.33341V9.66675H13.0834V4.33341H11.5834ZM9.66675 11.5834H4.33341V13.0834H9.66675V11.5834ZM2.41675 9.66675V4.33341H0.916748V9.66675H2.41675ZM4.33341 11.5834C3.27487 11.5834 2.41675 10.7253 2.41675 9.66675H0.916748C0.916748 11.5537 2.44644 13.0834 4.33341 13.0834V11.5834ZM11.5834 9.66675C11.5834 10.7253 10.7253 11.5834 9.66675 11.5834V13.0834C11.5537 13.0834 13.0834 11.5537 13.0834 9.66675H11.5834ZM9.66675 2.41675C10.7253 2.41675 11.5834 3.27487 11.5834 4.33341H13.0834C13.0834 2.44644 11.5537 0.916748 9.66675 0.916748V2.41675ZM4.33341 0.916748C2.44644 0.916748 0.916748 2.44644 0.916748 4.33341H2.41675C2.41675 3.27487 3.27487 2.41675 4.33341 2.41675V0.916748Z" fill="#C94F4F"/>
</svg>
